<svg width="34" height="34" viewBox="0 0 34 34" fill="none" xmlns="http://www.w3.org/2000/svg">
<path d="M11.8608 1.178C7.78376 2.573 4.30976 5.624 2.37476 9.485C1.69976 10.817 1.21376 12.23 0.916763 13.697C0.178763 17.333 0.691763 21.212 2.36576 24.524C3.45476 26.684 5.02076 28.61 6.91076 30.113C8.70176 31.535 10.7808 32.597 12.9948 33.182C15.7848 33.929 18.7548 33.911 21.5628 33.272C24.1008 32.687 26.5038 31.472 28.4208 29.708C30.4458 27.845 31.8948 25.397 32.6598 22.76C33.4968 19.889 33.6048 16.82 33.0828 13.868C27.8358 13.868 22.5798 13.868 17.3328 13.868C17.3328 16.046 17.3328 18.224 17.3328 20.402C20.3748 20.402 23.4168 20.402 26.4588 20.402C26.1078 22.49 24.8658 24.398 23.1108 25.577C22.0038 26.324 20.7348 26.801 19.4208 27.035C18.1068 27.26 16.7388 27.287 15.4248 27.026C14.0838 26.756 12.8148 26.198 11.6988 25.415C9.91676 24.164 8.55776 22.337 7.86476 20.276C7.15376 18.179 7.14476 15.848 7.86476 13.76C8.36876 12.284 9.19676 10.925 10.2948 9.809C11.6448 8.423 13.3998 7.433 15.2988 7.028C16.9188 6.686 18.6288 6.749 20.2128 7.226C21.5628 7.631 22.8048 8.378 23.8218 9.35C24.8478 8.324 25.8738 7.298 26.8998 6.272C27.4398 5.723 28.0068 5.192 28.5288 4.625C26.9718 3.185 25.1358 2.024 23.1378 1.286C19.5378 -0.046003 15.4878 -0.0730028 11.8608 1.178Z" fill="white"/>
<path d="M11.861 1.178C15.479 -0.0729987 19.538 -0.0459988 23.138 1.277C25.136 2.015 26.963 3.167 28.529 4.616C28.007 5.183 27.44 5.714 26.9 6.263C25.874 7.289 24.848 8.315 23.822 9.341C22.805 8.369 21.563 7.631 20.213 7.217C18.629 6.74 16.919 6.668 15.299 7.019C13.409 7.424 11.654 8.414 10.295 9.8C9.197 10.907 8.369 12.275 7.865 13.751C6.038 12.329 4.211 10.916 2.375 9.494C4.31 5.624 7.784 2.573 11.861 1.178Z" fill="#EA4335"/>
<path d="M0.925565 13.688C1.22256 12.23 1.70856 10.808 2.38356 9.476C4.21056 10.898 6.03756 12.311 7.87356 13.733C7.15356 15.83 7.15356 18.161 7.87356 20.249C6.04656 21.671 4.21956 23.093 2.39256 24.506C0.700565 21.203 0.187565 17.324 0.925565 13.688Z" fill="#FBBC05"/>
<path d="M17.3327 13.859C22.5797 13.859 27.8357 13.859 33.0827 13.859C33.6047 16.802 33.4877 19.871 32.6597 22.751C31.8947 25.388 30.4457 27.836 28.4207 29.699C26.6477 28.322 24.8747 26.945 23.1017 25.568C24.8567 24.389 26.0987 22.481 26.4497 20.393C23.4077 20.393 20.3657 20.393 17.3237 20.393C17.3327 18.215 17.3327 16.037 17.3327 13.859Z" fill="#4285F4"/>
<path d="M2.375 24.515C4.202 23.102 6.029 21.68 7.856 20.258C8.558 22.319 9.908 24.146 11.69 25.397C12.806 26.18 14.084 26.738 15.416 27.008C16.73 27.278 18.089 27.242 19.412 27.017C20.726 26.783 21.995 26.306 23.102 25.559C24.875 26.936 26.648 28.313 28.421 29.69C26.504 31.463 24.101 32.669 21.563 33.254C18.755 33.893 15.785 33.911 12.995 33.164C10.781 32.579 8.702 31.526 6.911 30.095C5.03 28.601 3.464 26.675 2.375 24.515Z" fill="#34A853"/>
</svg>
